User Type,Username,Date,Text
,Lasani,2012-05-19T07:44Z,"General
Unique ID                                : 232018954578256026821796249771886784588 (0xAE8D39A897B2ECD5B0A00C7EA5C0304C)
Complete name                            : How.I.Met.Your.Mother.S07E24.The.Magicians.Code.Pt.2.720p.WEB-DL.DD5.1.H.264-CtrlHD.mkv
Format                                   : Matroska
Format version                           : Version 2
File size                                : 689 MiB
Duration                                 : 21mn 35s
Overall bit rate                         : 4 461 Kbps
Encoded date                             : UTC 2012-05-15 15:08:19
Writing application                      : mkvmerge v5.5.0 ('Healer') built on Apr  6 2012 21:43:24
Writing library                          : libebml v1.2.3 + libmatroska v1.3.0

Video
ID                                       : 1
Format                                   : AVC
Format/Info                              : Advanced Video Codec
Format profile                           : High@L3.1
Format settings, CABAC                   : No
Format settings, ReFrames                : 2 frames
Format settings, GOP                     : N=1
Codec ID                                 : V_MPEG4/ISO/AVC
Duration                                 : 21mn 35s
Bit rate                                 : 3 989 Kbps
Width                                    : 1 280 pixels
Height                                   : 720 pixels
Display aspect ratio                     : 16:9
Frame rate                               : 23.976 fps
Color space                              : YUV
Chroma subsampling                       : 4:2:0
Bit depth                                : 8 bits
Scan type                                : Progressive
Bits/(Pixel*Frame)                       : 0.181
Stream size                              : 616 MiB (89%)
Language                                 : English
Default                                  : Yes
Forced                                   : No
Color primaries                          : BT.709-5, BT.1361, IEC 61966-2-4, SMPTE RP177
Transfer characteristics                 : BT.709-5, BT.1361
Matrix coefficients                      : BT.709-5, BT.1361, IEC 61966-2-4 709, SMPTE RP177

Audio
ID                                       : 2
Format                                   : AC-3
Format/Info                              : Audio Coding 3
Mode extension                           : CM (complete main)
Format settings, Endianness              : Big
Codec ID                                 : A_AC3
Duration                                 : 21mn 35s
Bit rate mode                            : Constant
Bit rate                                 : 384 Kbps
Channel(s)                               : 6 channels
Channel positions                        : Front: L C R, Side: L R, LFE
Sampling rate                            : 48.0 KHz
Bit depth                                : 16 bits
Compression mode                         : Lossy
Stream size                              : 59.3 MiB (9%)
Language                                 : English
Default                                  : Yes
Forced                                   : No"
,jokai82,2012-06-24T23:15Z,I love all your torrents! Could you please upload the entire first season of The Secret Circle in 720p web-dl? It would mean so much to me! 
